<svg id="visual" viewBox="0 0 900 600" width="900" height="600" xmlns="http://www.w3.org/2000/svg" xmlns:xlink="http://www.w3.org/1999/xlink" version="1.1"><rect x="0" y="0" width="900" height="600" fill="#001122"></rect><defs><linearGradient id="grad1_0" x1="33.3%" y1="0%" x2="100%" y2="100%"><stop offset="20%" stop-color="#001122" stop-opacity="1"></stop><stop offset="80%" stop-color="#001122" stop-opacity="1"></stop></linearGradient></defs><defs><linearGradient id="grad2_0" x1="0%" y1="0%" x2="66.7%" y2="100%"><stop offset="20%" stop-color="#001122" stop-opacity="1"></stop><stop offset="80%" stop-color="#001122" stop-opacity="1"></stop></linearGradient></defs><g transform="translate(900, 0)"><path d="M0 486.7C-52.7 453.2 -105.4 419.7 -166.1 401C-226.7 382.2 -295.4 378.3 -344.2 344.2C-393 310.1 -422.1 245.7 -442.5 183.3C-463 120.9 -474.9 60.5 -486.7 0L0 0Z" fill="#f6c95e"></path></g><g transform="translate(0, 600)"><path d="M0 -486.7C69.6 -486.3 139.2 -485.8 186.3 -449.7C233.4 -413.6 257.9 -342 291.3 -291.3C324.7 -240.7 366.9 -211.1 401 -166.1C435 -121 460.9 -60.5 486.7 0L0 0Z" fill="#f6c95e"></path></g></svg>